<svg width="157" height="46" viewBox="0 0 157 46" fill="none" xmlns="http://www.w3.org/2000/svg">
<path d="M5.8689 14.7802C7.08151 14.7802 8.27932 15.0534 9.37764 15.5805C10.476 16.1076 11.448 16.8757 12.2249 17.8305C13.1268 16.0174 14.4636 14.4696 16.1096 13.3326C17.7556 12.1956 19.6567 11.5068 21.6339 11.3312C23.611 11.1556 25.5992 11.4988 27.4114 12.3286C29.2235 13.1584 30.7999 14.4475 31.9923 16.0745C32.8222 17.1106 34.0101 17.7782 35.3082 17.938C36.6064 18.0978 37.9146 17.7375 38.96 16.9321C40.0054 16.1268 40.7073 14.9387 40.9194 13.6156C41.1315 12.2924 40.8373 10.9364 40.0983 9.83023C38.0584 7.05955 35.4211 4.81047 32.3927 3.25894C29.3643 1.70741 26.027 0.895498 22.6418 0.886719C13.1843 0.886719 5.11337 7.08464 2.08203 15.7273C3.25238 15.1057 4.55095 14.781 5.8689 14.7802Z" fill="url(#paint0_linear_1421_1009)"/>
<path d="M39.0909 29.4696C38.0154 28.6406 36.6629 28.2837 35.3309 28.4773C33.9988 28.6708 32.7963 29.399 31.9877 30.5018C30.7952 32.128 29.219 33.4163 27.4074 34.2457C25.5957 35.075 23.6081 35.418 21.6315 35.2425C19.655 35.067 17.7544 34.3787 16.1087 33.2423C14.463 32.106 13.1261 30.559 12.224 28.7468C11.0198 30.2295 9.35817 31.2462 7.51398 31.6288C5.66978 32.0114 3.75348 31.737 2.08203 30.8509C5.11337 39.4926 13.1834 45.6896 22.6409 45.6896C26.0258 45.6812 29.3629 44.8699 32.3913 43.319C35.4196 41.7682 38.0571 39.5198 40.0974 36.7498C40.9042 35.6472 41.2514 34.2612 41.0627 32.8962C40.874 31.5312 40.1648 30.2988 39.0909 29.4696Z" fill="url(#paint1_linear_1421_1009)"/>
<path d="M27.7073 23.0843C27.7508 24.2118 27.4354 25.3231 26.8087 26.2505C26.182 27.1778 25.278 27.8708 24.2333 28.2247C23.1886 28.5786 22.06 28.5742 21.018 28.2121C19.976 27.8501 19.0772 27.15 18.4574 26.2178C17.6502 25.0125 16.3642 24.231 14.9353 24.231H14.6318C13.8855 24.2275 13.1511 24.4231 12.5006 24.7984C11.8502 25.1737 11.306 25.716 10.9215 26.372C10.3046 27.4398 9.3814 28.2863 8.27795 28.7959C7.1745 29.3055 5.94458 29.4534 4.75612 29.2194C3.56766 28.9854 2.47859 28.3809 1.63759 27.4884C0.796602 26.596 0.244684 25.459 0.0571972 24.2329C-0.0258279 23.7882 -0.0119904 22.9377 0.0571972 22.3407C0.245844 21.1154 0.79827 19.9796 1.63919 19.088C2.48012 18.1964 3.56864 17.5924 4.75642 17.3584C5.9442 17.1243 7.17347 17.2715 8.27671 17.78C9.37994 18.2884 10.3035 19.1334 10.9215 20.1997C11.306 20.8557 11.8502 21.398 12.5006 21.7733C13.1511 22.1487 13.8855 22.3442 14.6318 22.3407H14.843C15.559 22.3356 16.2629 22.1513 16.8936 21.8037C17.5243 21.4561 18.0627 20.9558 18.462 20.3463C18.9661 19.5904 19.6564 18.9848 20.4627 18.5912C21.2689 18.1975 22.1624 18.0298 23.0524 18.105C25.5782 18.3094 27.6114 20.4892 27.7073 23.0843Z" fill="url(#paint2_linear_1421_1009)"/>
<path d="M2.08203 15.7258C3.75395 14.838 5.67142 14.5625 7.51687 14.945C9.36231 15.3274 11.025 16.345 12.2295 17.829C13.1314 16.0159 14.4682 14.4681 16.1142 13.3311C17.7602 12.1941 19.6613 11.5053 21.6385 11.3297C23.6156 11.1541 25.6038 11.4973 27.416 12.3271C29.2281 13.1569 30.8045 14.446 31.9969 16.073C22.6178 3.17291 6.79416 5.31394 2.08203 15.7258Z" fill="url(#paint3_linear_1421_1009)"/>
<path d="M2.08203 30.8532C3.75342 31.7392 5.66961 32.0137 7.51375 31.6313C9.3579 31.2489 11.0196 30.2324 12.224 28.75C13.1264 30.5627 14.4637 32.1102 16.11 33.2467C17.7563 34.3832 19.6575 35.0715 21.6347 35.2466C23.6119 35.4218 25.6 35.0781 27.412 34.2479C29.224 33.4178 30.8002 32.1284 31.9923 30.5012C22.6169 43.4051 6.79324 41.2651 2.08203 30.8532Z" fill="url(#paint4_linear_1421_1009)"/>
<path d="M57.5586 22.0803C57.5586 20.0025 57.9119 18.1088 58.6186 16.3992C59.3252 14.6634 60.3067 13.1774 61.563 11.9412C62.8192 10.6788 64.2849 9.70565 65.9599 9.02183C67.6611 8.33801 69.4932 7.99609 71.4561 7.99609C74.2828 7.99609 76.7822 8.67992 78.9545 10.0476C81.153 11.3889 82.8019 13.322 83.9011 15.8469L79.4649 17.1488C78.8891 16.0442 78.1694 15.15 77.3057 14.4661C76.4682 13.7823 75.5521 13.2826 74.5576 12.967C73.563 12.6514 72.5554 12.4936 71.5347 12.4936C69.8596 12.4936 68.3678 12.9012 67.0592 13.7165C65.7506 14.5056 64.7298 15.6234 63.997 17.0699C63.2904 18.5165 62.937 20.1866 62.937 22.0803C62.937 23.9739 63.2904 25.644 63.997 27.0906C64.7298 28.5108 65.7506 29.6286 67.0592 30.444C68.3678 31.2593 69.8596 31.6669 71.5347 31.6669C72.5816 31.6669 73.6154 31.5091 74.6361 31.1935C75.683 30.8516 76.6514 30.2861 77.5412 29.4971C78.4311 28.7081 79.1901 27.6561 79.8182 26.341L84.1759 27.564C83.0505 30.4308 81.3755 32.5875 79.1508 34.034C76.9262 35.4543 74.3613 36.1644 71.4561 36.1644C69.4932 36.1644 67.6611 35.8225 65.9599 35.1387C64.2849 34.4549 62.8192 33.4817 61.563 32.2193C60.3067 30.9568 59.3252 29.4708 58.6186 27.7613C57.9119 26.0254 57.5586 24.1317 57.5586 22.0803Z" fill="white"/>
<path d="M88.3702 16.1625H92.9242L93.2775 18.6874C93.8271 18.0036 94.4422 17.4513 95.1226 17.0305C95.8293 16.5834 96.6014 16.2809 97.4389 16.1231C98.2764 15.939 99.1532 15.9521 100.069 16.1625V20.8967C99.3626 20.66 98.6167 20.5942 97.8315 20.6995C97.0725 20.8047 96.3527 21.0808 95.6723 21.5279C95.0179 21.975 94.4683 22.6194 94.0234 23.4611C93.6046 24.2764 93.3953 25.3153 93.3953 26.5777V35.8883H88.3702V16.1625Z" fill="white"/>
<path d="M111.812 36.1644C109.849 36.1644 108.122 35.7304 106.63 34.8625C105.138 33.9946 103.974 32.7847 103.136 31.233C102.325 29.6812 101.919 27.8928 101.919 25.8676C101.919 23.9213 102.325 22.1986 103.136 20.6995C103.947 19.2003 105.073 18.0299 106.512 17.1883C107.978 16.3203 109.64 15.8864 111.498 15.8864C113.382 15.8864 115.044 16.294 116.484 17.1094C117.923 17.9247 119.036 19.0688 119.821 20.5416C120.632 21.9882 121.038 23.6846 121.038 25.6309C121.038 25.9202 121.012 26.249 120.959 26.6172C120.933 26.9591 120.894 27.3273 120.842 27.7218H107.337C107.441 28.5634 107.703 29.2867 108.122 29.8916C108.567 30.4703 109.103 30.9305 109.731 31.2724C110.386 31.588 111.119 31.7459 111.93 31.7459C112.898 31.7459 113.762 31.5486 114.521 31.1541C115.306 30.7333 115.869 30.1941 116.209 29.5366L120.685 30.8779C119.899 32.5612 118.722 33.8631 117.151 34.7836C115.607 35.7041 113.827 36.1644 111.812 36.1644ZM115.542 24.0528C115.516 23.3164 115.319 22.6589 114.953 22.0803C114.586 21.4753 114.102 21.0151 113.5 20.6995C112.898 20.3575 112.231 20.1866 111.498 20.1866C110.844 20.1866 110.229 20.3575 109.653 20.6995C109.077 21.0414 108.58 21.5016 108.161 22.0803C107.769 22.6326 107.507 23.2901 107.376 24.0528H115.542Z" fill="white"/>
<path d="M125.86 16.1625V10.6393H130.964V16.1625H135.282V20.6206H130.964V28.6292C130.964 29.6549 131.173 30.3782 131.592 30.799C132.037 31.2198 132.586 31.4434 133.241 31.4697C133.921 31.496 134.602 31.4565 135.282 31.3513V35.691C134.078 35.954 132.9 36.0329 131.749 35.9277C130.623 35.8225 129.616 35.52 128.726 35.0203C127.836 34.4943 127.129 33.7053 126.606 32.6532C126.109 31.6012 125.86 30.2598 125.86 28.6292V20.6206H123.073V16.1625H125.86Z" fill="white"/>
<path d="M147.774 36.1644C145.811 36.1644 144.083 35.7304 142.592 34.8625C141.1 33.9946 139.935 32.7847 139.097 31.233C138.286 29.6812 137.88 27.8928 137.88 25.8676C137.88 23.9213 138.286 22.1986 139.097 20.6995C139.909 19.2003 141.034 18.0299 142.474 17.1883C143.939 16.3203 145.601 15.8864 147.46 15.8864C149.344 15.8864 151.006 16.294 152.445 17.1094C153.885 17.9247 154.997 19.0688 155.782 20.5416C156.594 21.9882 156.999 23.6846 156.999 25.6309C156.999 25.9202 156.973 26.249 156.921 26.6172C156.895 26.9591 156.855 27.3273 156.803 27.7218H143.298C143.403 28.5634 143.665 29.2867 144.083 29.8916C144.528 30.4703 145.065 30.9305 145.693 31.2724C146.347 31.588 147.08 31.7459 147.891 31.7459C148.86 31.7459 149.723 31.5486 150.482 31.1541C151.268 30.7333 151.83 30.1941 152.171 29.5366L156.646 30.8779C155.861 32.5612 154.683 33.8631 153.113 34.7836C151.569 35.7041 149.789 36.1644 147.774 36.1644ZM151.503 24.0528C151.477 23.3164 151.281 22.6589 150.914 22.0803C150.548 21.4753 150.064 21.0151 149.462 20.6995C148.86 20.3575 148.192 20.1866 147.46 20.1866C146.805 20.1866 146.19 20.3575 145.614 20.6995C145.039 21.0414 144.541 21.5016 144.123 22.0803C143.73 22.6326 143.468 23.2901 143.337 24.0528H151.503Z" fill="white"/>
<defs>
<linearGradient id="paint0_linear_1421_1009" x1="40.3815" y1="9.51896" x2="-3.33766" y2="9.51896" gradientUnits="userSpaceOnUse">
<stop stop-color="#66D1E7"/>
<stop offset="1" stop-color="#4329CD"/>
</linearGradient>
<linearGradient id="paint1_linear_1421_1009" x1="40.3806" y1="37.0573" x2="-3.33858" y2="37.0573" gradientUnits="userSpaceOnUse">
<stop stop-color="#66D1E7"/>
<stop offset="1" stop-color="#4329CD"/>
</linearGradient>
<linearGradient id="paint2_linear_1421_1009" x1="-0.0968601" y1="15.8731" x2="30.4308" y2="31.8403" gradientUnits="userSpaceOnUse">
<stop stop-color="#66D1E7"/>
<stop offset="1" stop-color="#4329CD"/>
</linearGradient>
<linearGradient id="paint3_linear_1421_1009" x1="5.39289" y1="36.6555" x2="19.7841" y2="12.2052" gradientUnits="userSpaceOnUse">
<stop stop-color="#66D1E7"/>
<stop offset="1" stop-color="#2F22B2"/>
</linearGradient>
<linearGradient id="paint4_linear_1421_1009" x1="5.39196" y1="9.92255" x2="19.7832" y2="34.3728" gradientUnits="userSpaceOnUse">
<stop stop-color="#66D1E7"/>
<stop offset="1" stop-color="#2F22B2"/>
</linearGradient>
</defs>
</svg>
