<svg id="Layer_1" data-name="Layer 1" xmlns="http://www.w3.org/2000/svg" viewBox="0 0 103.26 103.26"><defs><style>.cls-1{fill:#f36f21;}.cls-2{fill:#fff;}</style></defs><circle cx="51.63" cy="51.63" r="51.63"/><path class="cls-1" d="M274.37,359.68a14.7,14.7,0,0,1-3-.31,13.14,13.14,0,0,1-2.74-.9,11.13,11.13,0,0,1-2.3-1.43l1.86-3.31a9.14,9.14,0,0,0,2.85,1.56,10,10,0,0,0,3.31.55,5.74,5.74,0,0,0,3-.67,2.08,2.08,0,0,0,1.09-1.88v0a1.82,1.82,0,0,0-.54-1.41,3.33,3.33,0,0,0-1.43-.72,18.69,18.69,0,0,0-1.93-.4c-.83-.13-1.67-.28-2.52-.48a8.24,8.24,0,0,1-2.34-.9,4.6,4.6,0,0,1-1.72-1.78,6.24,6.24,0,0,1-.66-3.09v0a5.94,5.94,0,0,1,2.06-4.83,8.85,8.85,0,0,1,5.8-1.7,11.22,11.22,0,0,1,3.51.58,12.59,12.59,0,0,1,3.33,1.64l-1.7,3.4a10.27,10.27,0,0,0-2.57-1.32,7.85,7.85,0,0,0-2.57-.46,5.64,5.64,0,0,0-2.86.6,1.92,1.92,0,0,0-1,1.71h0a2,2,0,0,0,.6,1.56,3.8,3.8,0,0,0,1.57.78c.64.17,1.33.33,2.08.48s1.63.35,2.44.58a8.63,8.63,0,0,1,2.23,1,4.7,4.7,0,0,1,1.61,1.78,6.23,6.23,0,0,1,.6,2.93v0a5.74,5.74,0,0,1-2.12,4.76A9.41,9.41,0,0,1,274.37,359.68Z" transform="translate(-244.67 -312.81)"/><path class="cls-2" d="M285.52,359.46V343.84h2.94v15.62Zm1.31,0v-2.84H296v2.84Z" transform="translate(-244.67 -312.81)"/><path class="cls-2" d="M301,343.84v15.62h-3.05V343.84Z" transform="translate(-244.67 -312.81)"/><path class="cls-2" d="M304.19,359.46V343.84h2.94v15.62Zm1.48,0v-2.84h3.75a3.3,3.3,0,0,0,2.25-.7,2.5,2.5,0,0,0,.79-2v-4.6a2.5,2.5,0,0,0-.79-2,3.35,3.35,0,0,0-2.25-.7h-3.75v-2.83h3.69a6.56,6.56,0,0,1,4.55,1.46,5.32,5.32,0,0,1,1.6,4.13v4.43a6,6,0,0,1-.69,2.93,4.69,4.69,0,0,1-2.05,2,7.48,7.48,0,0,1-3.43.71Z" transform="translate(-244.67 -312.81)"/><path class="cls-2" d="M318.41,359.46V343.84h2.94v15.62Zm1.06-12.79v-2.83h9.4v2.83Zm0,6.45v-2.84h8.22v2.84Zm0,6.34v-2.84h9.4v2.84Z" transform="translate(-244.67 -312.81)"/><path class="cls-2" d="M271,382.45a10.57,10.57,0,0,1-2.19-.22,9.2,9.2,0,0,1-2-.66,7.77,7.77,0,0,1-1.69-1.05l1.36-2.43a6.63,6.63,0,0,0,2.09,1.15,7.42,7.42,0,0,0,2.43.4,4.22,4.22,0,0,0,2.23-.49,1.52,1.52,0,0,0,.79-1.38h0a1.35,1.35,0,0,0-.39-1,2.6,2.6,0,0,0-1.05-.53c-.43-.11-.9-.21-1.41-.29s-1.23-.21-1.85-.35a6.14,6.14,0,0,1-1.72-.66,3.45,3.45,0,0,1-1.26-1.31,4.59,4.59,0,0,1-.48-2.27h0a4.37,4.37,0,0,1,1.5-3.54,6.54,6.54,0,0,1,4.26-1.25,8.21,8.21,0,0,1,2.58.43,9.11,9.11,0,0,1,2.44,1.21l-1.25,2.49a7.36,7.36,0,0,0-1.89-1,5.63,5.63,0,0,0-1.88-.34,4.21,4.21,0,0,0-2.1.44,1.41,1.41,0,0,0-.74,1.25v0a1.42,1.42,0,0,0,.44,1.13,2.9,2.9,0,0,0,1.15.58c.48.12,1,.24,1.53.35s1.2.25,1.79.42a5.88,5.88,0,0,1,1.63.73,3.4,3.4,0,0,1,1.19,1.3,4.58,4.58,0,0,1,.44,2.15v0a4.19,4.19,0,0,1-1.56,3.49A6.87,6.87,0,0,1,271,382.45Z" transform="translate(-244.67 -312.81)"/><path class="cls-2" d="M279.46,382.29V366.67h2.94v15.62Zm1.31,0v-2.83h9.15v2.83Z" transform="translate(-244.67 -312.81)"/><path class="cls-2" d="M292.07,382.29V366.67H295v15.62Zm1.06-12.78v-2.84h9.4v2.84Zm0,6.45v-2.84h8.22V376Zm0,6.33v-2.83h9.4v2.83Z" transform="translate(-244.67 -312.81)"/><path class="cls-2" d="M305.22,382.29V366.67h2.94v15.62Zm1.06-12.78v-2.84h9.4v2.84Zm0,6.45v-2.84h8.22V376Zm0,6.33v-2.83h9.4v2.83Z" transform="translate(-244.67 -312.81)"/><path class="cls-2" d="M318.37,382.29V366.67h2.94v15.62Zm2.14-2.27-.37-3.83,6.26-9.52h3.71Zm6.76,2.27-4.53-7.9,2.53-1.6,5.49,9.5Z" transform="translate(-244.67 -312.81)"/></svg>